<svg width="2560" height="1440" viewBox="0 0 2560 1440" fill="none" xmlns="http://www.w3.org/2000/svg">
<g clip-path="url(#clip0_2_2)">
<rect width="2560" height="1440" fill="#161616"/>
<path d="M1622 1006.51C1245.75 1050.87 1089 1245 1036 1323.51L930 1474V1520.5L1036 1560.51C1540 1577.67 2589 1610.71 2753 1605.51C2958 1599.01 2641.5 241.5 2600 238.5C2558.5 235.5 2348.48 202.853 2179 485C1994 792.994 2080 952.506 1622 1006.51Z" fill="#C22D06"/>
<path d="M1622 1141C1245.75 1185.36 1084 1384.17 1036 1458V1695C1540 1712.17 2589 1745.2 2753 1740C2958 1733.5 2637.5 327 2596 324C2554.5 321 2275.5 321 2198.5 641C2121.5 961 2080 1087 1622 1141Z" fill="#EB3E33"/>
<path d="M1795 1185.5C1436.2 1226.3 1250.5 1384.17 1202.5 1458V1695C1706.5 1712.17 2755.5 1745.2 2919.5 1740C3124.5 1733.5 2804 327 2762.5 324C2721 321 2442 321 2365 641C2288 961 2243.5 1134.5 1795 1185.5Z" fill="#FF5F35"/>
<path d="M802.417 150.043C1178.67 105.681 1335.42 -88.4509 1388.42 -166.958L1494.42 -317.451L1494.42 -363.951L1388.42 -403.958C884.417 -421.124 -164.583 -454.158 -328.583 -448.958C-533.583 -442.458 -217.083 915.049 -175.583 918.049C-134.083 921.049 75.9416 953.696 245.417 671.549C430.417 363.555 344.417 204.043 802.417 150.043Z" fill="#222D8E"/>
<path d="M802.417 15.549C1178.67 -28.8126 1340.42 -227.617 1388.42 -301.451L1388.42 -538.451C884.417 -555.618 -164.583 -588.651 -328.583 -583.451C-533.583 -576.951 -213.083 829.549 -171.583 832.549C-130.083 835.549 148.917 835.549 225.917 515.549C302.917 195.549 344.417 69.549 802.417 15.549Z" fill="#003BAE"/>
<path d="M629.417 -28.951C988.217 -69.7509 1173.92 -227.617 1221.92 -301.451L1221.92 -538.451C717.917 -555.618 -331.083 -588.651 -495.083 -583.451C-700.083 -576.951 -379.583 829.549 -338.083 832.549C-296.583 835.549 -17.5831 835.549 59.4169 515.549C136.417 195.549 180.917 22.049 629.417 -28.951Z" fill="#4D33EB"/>
</g>
<defs>
<clipPath id="clip0_2_2">
<rect width="2560" height="1440" fill="white"/>
</clipPath>
</defs>
</svg>
