<svg width="33" height="42" viewBox="0 0 33 42" fill="none" xmlns="http://www.w3.org/2000/svg">
<path d="M9.82143 6.03577H5.53571C4.39907 6.03577 3.30898 6.4873 2.50526 7.29102C1.70153 8.09475 1.25 9.18484 1.25 10.3215V36.0358C1.25 37.1724 1.70153 38.2625 2.50526 39.0662C3.30898 39.87 4.39907 40.3215 5.53571 40.3215H26.9643C28.1009 40.3215 29.191 39.87 29.9947 39.0662C30.7985 38.2625 31.25 37.1724 31.25 36.0358V10.3215C31.25 9.18484 30.7985 8.09475 29.9947 7.29102C29.191 6.4873 28.1009 6.03577 26.9643 6.03577H22.6786" stroke="white" stroke-width="2" stroke-linecap="round" stroke-linejoin="round"/>
<path d="M9.82144 6.03571C9.82144 4.89907 10.273 3.80898 11.0767 3.00526C11.8804 2.20153 12.9705 1.75 14.1072 1.75H18.3929C19.5295 1.75 20.6196 2.20153 21.4233 3.00526C22.2271 3.80898 22.6786 4.89907 22.6786 6.03571C22.6786 7.17236 22.2271 8.26245 21.4233 9.06617C20.6196 9.8699 19.5295 10.3214 18.3929 10.3214H14.1072C12.9705 10.3214 11.8804 9.8699 11.0767 9.06617C10.273 8.26245 9.82144 7.17236 9.82144 6.03571Z" stroke="white" stroke-width="2" stroke-linecap="round" stroke-linejoin="round"/>
<path d="M9.82144 25.3215L14.1072 29.6072L22.6786 21.0358" stroke="white" stroke-width="2" stroke-linecap="round" stroke-linejoin="round"/>
</svg>
